HIERARCHY
ROOT Hips
{
	OFFSET -0.179506 -22.333345 2.821913
	CHANNELS 6 Xposition Yposition Zposition Zrotation Yrotation Xrotation 
	JOINT LeftUpLeg
	{
		OFFSET 6.951974 -9.140623 -0.681533
		CHANNELS 3 Zrotation Yrotation Xrotation
		JOINT LeftLeg
		{
			OFFSET 3.427654 -37.519855 -0.449580
			CHANNELS 3 Zrotation Yrotation Xrotation
			JOINT LeftFoot
			{
				OFFSET -1.359570 -39.796059 -4.369333
				CHANNELS 3 Zrotation Yrotation Xrotation
				JOINT LeftToe
				{
					OFFSET 2.635814 -5.579078 11.928840
					CHANNELS 3 Zrotation Yrotation Xrotation
					End Site
					{
						OFFSET 0.000000 0.000000 0.000000
					}
				}
			}
		}
	}
	JOINT RightUpLeg
	{
		OFFSET -6.767048 -9.052170 -0.431982
		CHANNELS 3 Zrotation Yrotation Xrotation
		JOINT RightLeg
		{
			OFFSET -3.829005 -38.256897 -0.885003
			CHANNELS 3 Zrotation Yrotation Xrotation
			JOINT RightFoot
			{
				OFFSET 1.577377 -39.841461 -4.231180
				CHANNELS 3 Zrotation Yrotation Xrotation
				JOINT RightToe
				{
					OFFSET -2.537174 -4.814398 12.334795
					CHANNELS 3 Zrotation Yrotation Xrotation
					End Site
					{
						OFFSET 0.000000 0.000000 0.000000
					}
				}
			}
		}
	}
	JOINT Spine
	{
		OFFSET -0.253288 10.896323 -2.669631
		CHANNELS 3 Zrotation Yrotation Xrotation
		JOINT Spine1
		{
			OFFSET 0.548704 13.518043 0.109247
			CHANNELS 3 Zrotation Yrotation Xrotation
			JOINT Spine2
			{
				OFFSET 0.145701 5.292222 2.542457
				CHANNELS 3 Zrotation Yrotation Xrotation
				JOINT Neck
				{
					OFFSET -0.277840 21.387037 -4.285703
					CHANNELS 3 Zrotation Yrotation Xrotation
					JOINT Head
					{
						OFFSET 0.515184 6.496960 5.134897
						CHANNELS 3 Zrotation Yrotation Xrotation
						End Site
						{
							OFFSET 0.000000 0.000000 0.000000
						}
					}
				}
				JOINT LeftShoulder
				{
					OFFSET 7.884473 12.174932 -3.408961
					CHANNELS 3 Zrotation Yrotation Xrotation
					JOINT LeftArm
					{
						OFFSET 9.097692 3.046888 -0.886815
						CHANNELS 3 Zrotation Yrotation Xrotation
						JOINT LeftForeArm
						{
							OFFSET 25.961220 -1.277207 -2.745643
							CHANNELS 3 Zrotation Yrotation Xrotation
							JOINT LeftHand
							{
								OFFSET 24.923361 0.898606 -0.117091
								CHANNELS 3 Zrotation Yrotation Xrotation
								End Site
								{
									OFFSET 0.000000 0.000000 0.000000
								}
							}
						}
					}
				}
				JOINT RightShoulder
				{
					OFFSET -8.175920 11.883285 -3.861528
					CHANNELS 3 Zrotation Yrotation Xrotation
					JOINT RightArm
					{
						OFFSET -9.601238 3.255117 -0.914307
						CHANNELS 3 Zrotation Yrotation Xrotation
						JOINT RightForeArm
						{
							OFFSET -25.374195 -1.332924 -2.140099
							CHANNELS 3 Zrotation Yrotation Xrotation
							JOINT RightHand
							{
								OFFSET -25.529810 0.777228 -0.555919
								CHANNELS 3 Zrotation Yrotation Xrotation
								End Site
								{
									OFFSET 0.000000 0.000000 0.000000
								}
							}
						}
					}
				}
			}
		}
	}
}
MOTION
Frames: 17
Frame Time: 0.033333
364.718811 30.743269 96.260399 -96.519365 -1.083726 87.143198 1.204830 2.151878 8.046845 -0.865690 -6.133327 -5.051552 2.368500 12.802787 -5.598294 nan nan nan -3.925964 -2.526410 6.534944 3.363126 3.766763 -3.977776 5.981063 -3.036441 0.946170 nan nan nan -1.178801 3.556566 -3.347316 2.710532 -1.996870 14.509490 -1.559670 1.472032 -1.532339 1.712882 1.763872 5.132302 0.059640 -1.164749 -0.843166 -23.186879 6.038992 0.813054 -66.968554 -5.050671 17.938162 13.695080 -28.626769 -8.139125 5.607206 -12.172016 -2.902648 23.577849 0.537956 3.828286 66.162532 4.029623 12.638892 -12.250160 19.431388 -16.748524 -7.037248 7.960958 -14.477523 
365.351929 30.509712 96.172150 -96.830798 -1.093569 88.229679 0.985121 1.872026 5.888431 -0.945478 -4.907280 -3.991530 2.260452 12.223909 -5.423604 nan nan nan -4.150680 -2.269505 4.236548 3.645822 3.018525 -2.711576 6.130112 -2.471996 1.292413 nan nan nan -0.549459 3.416003 -2.781991 2.274459 -1.665178 13.316277 -1.852229 1.552750 -2.015595 1.850442 2.482984 5.077274 0.003252 -1.746087 -0.863892 -23.139263 6.163659 0.350203 -66.272831 -4.613492 18.235854 14.637828 -29.341035 -6.867739 2.896866 -15.879148 -2.326476 23.143963 0.607151 3.703668 66.749251 3.734359 12.650660 -12.916438 19.403274 -16.114964 -5.368494 9.435768 -13.826000 
365.325317 30.427822 96.153458 -96.772858 -1.109365 88.422170 0.917971 1.762888 5.703799 -0.917434 -4.751524 -4.036974 2.155916 12.097108 -5.270911 nan nan nan -4.270663 -2.406549 4.081827 3.750613 2.559132 -2.716916 6.513498 -2.300486 1.563923 nan nan nan -0.460616 3.384305 -2.951732 2.238748 -1.696882 12.920294 -1.872792 1.600001 -1.645117 1.847465 2.541210 5.079956 -0.068119 -1.841660 -0.824144 -22.877691 6.148904 0.526643 -66.952947 -4.633024 17.815246 15.026833 -29.166751 -7.451551 3.874235 -16.936427 -3.071288 23.109916 0.536610 4.014481 66.716903 3.862343 12.080348 -14.572693 20.253115 -14.381289 -7.474895 10.560090 -9.004504 
365.380890 30.381760 96.173714 -96.702338 -1.168742 88.519387 0.894126 1.746671 5.483978 -1.067462 -4.530655 -3.918220 2.223089 12.004527 -5.154944 nan nan nan -4.395893 -2.513902 3.941541 3.906049 2.401317 -2.643195 6.589311 -2.312344 1.564688 nan nan nan -0.379988 3.354100 -3.016598 2.131975 -1.758915 13.143249 -1.973483 1.626427 -1.828631 1.922863 2.510836 4.975976 -0.077080 -1.923230 -0.652212 -22.991544 6.217238 0.559980 -66.411614 -4.958652 17.449435 15.567220 -29.041247 -6.854586 -0.552366 -15.890861 0.186529 23.117843 0.428886 4.207105 66.712574 4.141885 11.709911 -15.187462 20.228433 -14.097037 -4.077567 9.810879 -6.880964 
365.203491 30.263529 96.182121 -97.288561 -1.278152 88.038648 0.555504 2.141140 6.486931 -0.753318 -4.335449 -4.426642 2.000381 11.940255 -5.246608 nan nan nan -4.792700 -2.460373 4.590095 4.052909 2.567020 -2.708015 6.790103 -1.716929 1.490888 nan nan nan 0.023560 3.520195 -2.926729 2.177614 -1.495426 13.980752 -2.018182 1.644012 -1.456584 1.216449 -2.628693 8.897120 -1.079734 -6.037668 -3.822256 -23.296071 6.664778 -0.324497 -66.252737 -4.886970 17.800082 14.721147 -28.898305 -5.513076 -0.040730 -17.704518 0.488977 21.998629 0.528547 2.879645 67.409806 3.744682 11.690179 -14.630672 19.825033 -13.600050 -5.048434 10.789217 -8.039606 
365.296265 30.371651 96.188492 -97.071523 -1.232538 88.292881 0.680994 1.742723 6.077430 -0.744845 -4.514227 -4.304259 2.105352 11.861445 -5.152528 nan nan nan -4.595984 -2.519236 4.243946 3.990140 2.406977 -2.657468 6.763471 -1.857116 1.268414 nan nan nan -0.226595 3.367371 -2.968386 1.952603 -1.574916 13.632252 -2.195622 1.590970 -1.481982 1.753674 2.640681 5.228529 -0.725170 -2.317630 -2.285599 -22.477217 7.012427 -0.570272 -66.698001 -4.452431 18.013142 14.797997 -28.920784 -4.086944 0.021368 -17.535795 1.370207 22.831946 0.158080 3.633275 66.929340 4.796485 11.907155 -14.328251 19.025226 -14.285699 -4.513546 10.368233 -7.143002 
365.674408 30.871719 96.175110 -94.625741 -0.721382 88.562917 2.054388 1.083715 4.363727 -1.431753 -5.382029 -2.703910 1.660061 10.889960 -5.280131 nan nan nan -3.203356 -2.848737 4.345269 3.553841 1.313367 -3.281949 6.123076 -3.091491 1.314949 nan nan nan -1.260488 2.446926 -2.111555 2.726303 -2.539368 12.319608 -1.498794 1.330285 -1.289919 1.838852 2.709833 4.632097 -0.697418 -2.627200 -1.703448 -21.928311 7.355353 -0.759580 -67.248186 -4.781784 18.228051 14.620597 -28.649904 -3.785347 -0.174301 -16.977529 1.277178 22.541764 -0.311253 3.162369 67.486046 4.793181 12.444930 -14.434843 18.724223 -13.786713 -4.653213 9.848936 -8.146605 
365.885529 30.920542 96.113800 -93.881593 -0.289049 88.602672 2.705081 0.389486 3.730599 -1.723429 -4.450545 -2.085091 1.611530 10.087804 -5.216621 nan nan nan -2.717341 -3.113227 4.202606 3.645727 0.457961 -3.166131 6.144989 -2.803630 1.246036 nan nan nan -0.806316 2.118715 -1.264839 2.690987 -2.769823 11.248779 -1.293601 1.148954 -0.805687 2.326154 3.278486 4.038027 -1.542375 -3.285026 -1.352016 -21.712433 7.687989 -1.359460 -69.313363 -4.751724 16.635331 16.236160 -28.108963 -10.487621 -2.919797 -17.290637 3.844117 21.728231 -0.398836 3.228881 68.126435 5.208190 12.049225 -14.679313 18.707768 -14.135316 -2.470262 9.721350 -5.606950 
365.866669 30.937971 96.157272 -93.842683 -0.293815 88.370112 2.739691 0.292387 4.050176 -1.760523 -3.820640 -2.175288 1.412638 9.561047 -5.074697 nan nan nan -2.778740 -3.213633 4.490748 3.713114 -0.032214 -3.133101 6.278980 -2.317895 1.202358 nan nan nan -0.837779 2.237629 -0.811147 2.700744 -2.818255 11.184466 -1.160679 1.039194 -0.798348 2.567879 3.855231 3.912567 -1.711513 -3.858489 -1.435980 -21.488620 7.721816 -1.938579 -69.955929 -4.563332 16.392246 16.082298 -27.020637 -11.694311 -8.388541 -19.052772 3.751225 21.907068 -0.376060 3.034823 67.621892 5.312691 11.410691 -14.840573 17.923957 -14.582377 1.437425 11.425541 -2.478184 
365.860107 30.973190 96.204292 -93.848492 -0.303651 88.439528 2.808030 0.271672 3.984843 -1.872521 -3.754349 -2.162818 1.327132 9.468045 -5.024903 nan nan nan -2.794216 -3.175500 4.413800 3.653606 -0.020562 -3.147485 6.539132 -2.242591 1.356017 nan nan nan -0.841561 2.179503 -0.662111 2.607829 -2.670791 10.689821 -1.130844 1.133170 -0.231415 2.915952 3.972979 3.476193 -1.421021 -4.216287 -1.679290 -21.608042 7.706600 -2.598591 -69.980394 -3.956563 16.710100 16.779871 -27.190313 -11.166090 -5.005118 -20.522125 4.290604 22.104133 -0.439321 2.375435 67.482345 4.768334 11.512623 -14.696932 18.115852 -14.417953 0.088795 12.242726 -2.799813 
365.823914 31.023291 96.253998 -93.750681 -0.262517 88.479358 2.752303 0.050623 3.996622 -1.831858 -3.735519 -1.936853 1.444992 9.635014 -5.380517 nan nan nan -2.789030 -3.289522 4.371333 3.874400 -0.266561 -2.847584 6.842653 -2.399637 1.149145 nan nan nan -0.795425 2.047041 -0.505043 2.551561 -2.651233 10.100965 -1.202450 1.357250 0.268844 3.111293 3.835886 3.356896 -1.430438 -4.216869 -1.609321 -21.603467 7.602890 -3.138406 -70.058723 -3.492357 16.644077 17.126037 -27.050779 -11.150997 -4.754409 -20.962601 5.808899 22.362675 -0.648192 1.829429 67.280047 4.342335 11.255748 -14.553531 18.223999 -14.583738 0.177480 12.493742 -2.093749 
365.764313 31.091585 96.288353 -93.596186 -0.496017 88.410295 2.469195 -0.523889 4.292409 -1.357740 -5.126668 -2.238462 1.647323 9.798387 -4.882400 nan nan nan -3.084357 -3.437723 4.511125 4.009492 -0.511580 -2.824048 6.639777 -2.408977 1.084989 nan nan nan -1.214653 1.987420 -0.453270 2.681337 -2.769970 10.213117 -1.196282 1.370534 0.103397 2.824207 3.447892 3.701582 -0.978512 -3.924959 -1.700463 -21.808720 7.763938 -2.968582 -69.775344 -3.548242 16.679640 16.947093 -27.186519 -10.924716 -4.329936 -20.465350 6.437392 22.453351 -0.726240 2.069973 67.275321 4.502647 11.347085 -14.642228 18.218598 -14.618091 0.292638 12.467606 -2.069706 
365.722595 31.245195 96.261818 -93.591228 -0.294808 88.372619 2.973441 -0.363276 4.398978 -1.729152 -5.272101 -2.321104 1.643973 9.897473 -4.896526 nan nan nan -2.955060 -3.356441 4.484333 4.367035 -0.980953 -2.643210 6.674328 -2.248703 0.898392 nan nan nan -1.205178 1.958542 -0.347605 2.830530 -2.717100 9.909762 -1.152124 1.347758 0.490862 3.058976 3.609387 3.667062 -1.456865 -4.184887 -1.802077 -21.795447 7.932979 -3.327559 -69.917049 -3.646576 16.607312 16.331441 -26.727824 -11.233645 -4.858712 -19.853493 7.605351 22.334740 -0.736621 1.925751 67.400053 4.566048 11.352401 -14.627030 18.230725 -14.697974 0.760689 12.093457 -1.702402 
365.675079 31.342791 96.228416 -93.581025 -0.227655 88.277681 3.230466 -0.421309 4.604853 -1.926760 -5.657190 -2.476308 1.690598 10.133347 -4.787608 nan nan nan -2.745541 -2.453038 4.717249 4.320708 -1.215775 -2.864154 6.683398 -2.928820 0.875578 nan nan nan -1.272137 1.943795 -0.159605 2.902574 -2.601369 9.675457 -1.076973 1.319840 0.758217 3.066532 3.542872 3.680247 -1.529464 -4.175672 -1.944649 -21.750787 7.952369 -3.370321 -69.992521 -3.733507 16.825956 15.622215 -26.330012 -11.333266 -5.717086 -19.484939 6.008132 22.159598 -0.823641 1.618122 67.639487 4.383770 11.692075 -14.833301 18.463762 -14.379495 0.853040 11.215997 -2.384899 
365.637634 31.387907 96.202896 -93.694463 -0.010413 88.327730 3.350728 0.121197 4.451828 -2.031232 -4.411148 -2.215202 1.364081 10.001190 -5.368020 nan nan nan -2.477524 -2.311884 4.704618 4.247180 -1.008730 -2.885808 6.759460 -3.015537 0.898671 nan nan nan -0.907032 1.967933 -0.268292 2.793254 -2.436567 9.664129 -1.100795 1.264718 0.960078 3.221823 3.722112 3.663521 -1.712409 -4.390560 -2.036521 -21.774831 7.926190 -3.409911 -70.071044 -3.752481 16.842597 15.570825 -26.112277 -11.880225 -7.453751 -19.295802 4.658816 22.108348 -0.852564 1.490503 67.659865 4.286981 11.701569 -14.934744 18.734314 -14.268767 1.210883 10.586887 -2.516343 
365.671997 31.350481 96.243187 -93.931755 -0.184825 88.600140 3.043046 -0.397942 4.289242 -1.530580 -5.099257 -2.396444 1.563847 10.019802 -4.741787 nan nan nan -2.963811 -3.652312 4.169630 4.430073 0.084575 -2.554282 6.887265 -2.512802 1.219809 nan nan nan -1.051421 2.292139 -0.421735 2.900034 -2.527476 9.744275 -1.141223 1.371640 0.707009 2.579460 2.920453 4.200420 -1.030673 -3.894032 -2.624801 -22.071891 7.764266 -3.168475 -69.891220 -3.820811 16.862827 15.886383 -26.192023 -13.207779 -9.218802 -18.342664 3.001260 22.102773 -0.954221 1.622136 67.640574 4.216626 11.810377 -15.343525 18.916743 -14.321289 2.021243 9.876218 -2.267814 
365.702545 31.417948 96.234459 -94.180493 -0.068875 88.831122 3.221461 0.191527 3.869372 -1.954922 -3.751637 -2.050705 1.404268 9.910952 -5.365815 nan nan nan -2.844299 -4.148958 3.695750 4.424116 0.417095 -2.194089 6.859302 -2.220600 1.245150 nan nan nan -0.897265 2.334666 -0.642304 2.797489 -2.368367 9.744704 -1.155431 1.437528 0.831104 2.927206 3.022016 4.142403 -1.199580 -4.234674 -2.658405 -22.087191 7.839449 -3.206685 -69.764101 -3.652524 17.052345 15.664757 -26.396351 -12.262641 -8.781102 -18.583724 4.498849 22.118155 -1.030473 1.503477 67.630825 4.220549 11.794329 -15.183809 18.891615 -14.086904 1.499846 10.065188 -2.300203 
